<svg width="36" height="36" viewBox="0 0 36 36" fill="none" xmlns="http://www.w3.org/2000/svg">
<path d="M24.804 36V22.068H29.47L30.168 16.652H24.804V13.196C24.804 11.628 25.24 10.558 27.488 10.558H30.356V5.714C28.9676 5.56669 27.5722 5.49525 26.176 5.5C22.042 5.5 19.212 8.024 19.212 12.66V16.652H14.536V22.068H19.212V36H2C1.46957 36 0.960859 35.7893 0.585786 35.4142C0.210714 35.0391 0 34.5304 0 34V2C0 1.46957 0.210714 0.960859 0.585786 0.585786C0.960859 0.210714 1.46957 0 2 0H34C34.5304 0 35.0391 0.210714 35.4142 0.585786C35.7893 0.960859 36 1.46957 36 2V34C36 34.5304 35.7893 35.0391 35.4142 35.4142C35.0391 35.7893 34.5304 36 34 36H24.804Z" fill="white"/>
</svg>
