<svg width="36" height="36" viewBox="0 0 36 36" fill="none" xmlns="http://www.w3.org/2000/svg">
<path d="M30.67 30.678H25.34V22.324C25.34 20.332 25.3 17.768 22.56 17.768C19.782 17.768 19.358 19.936 19.358 22.178V30.678H14.026V13.5H19.146V15.84H19.216C19.932 14.492 21.672 13.066 24.272 13.066C29.672 13.066 30.672 16.622 30.672 21.248V30.678H30.67ZM8.006 11.15C7.59911 11.1505 7.19612 11.0707 6.82013 10.9152C6.44413 10.7597 6.10254 10.5315 5.81491 10.2437C5.52729 9.95586 5.2993 9.61412 5.14402 9.23802C4.98874 8.86193 4.90921 8.45889 4.91 8.052C4.9104 7.43967 5.09236 6.84121 5.43288 6.33229C5.7734 5.82338 6.25719 5.42687 6.82306 5.1929C7.38893 4.95894 8.01147 4.89803 8.61196 5.01788C9.21245 5.13773 9.76391 5.43295 10.1966 5.86621C10.6293 6.29948 10.9238 6.85132 11.0429 7.45196C11.162 8.0526 11.1003 8.67507 10.8656 9.24064C10.6309 9.8062 10.2337 10.2895 9.72438 10.6293C9.21503 10.9692 8.61633 11.1504 8.004 11.15H8.006ZM10.678 30.678H5.332V13.5H10.68V30.678H10.678ZM33.34 0H2.658C1.186 0 0 1.16 0 2.594V33.406C0 34.84 1.188 36 2.656 36H33.332C34.8 36 36 34.84 36 33.406V2.594C36 1.16 34.8 0 33.332 0H33.338H33.34Z" fill="white"/>
</svg>
