<svg width="32" height="38" viewBox="0 0 32 38" fill="none" xmlns="http://www.w3.org/2000/svg">
<path d="M13.1714 15.7301V14.238C12.6602 14.1697 12.1405 14.1271 11.6038 14.1271C5.20551 14.1187 0 19.3285 0 25.7407C0 29.6715 1.95952 33.1505 4.95844 35.2566C3.02448 33.1846 1.84024 30.3963 1.84024 27.3437C1.84024 21.0253 6.90092 15.8751 13.1714 15.7301Z" fill="white"/>
<path d="M13.4526 32.6474C16.3067 32.6474 18.641 30.3708 18.7433 27.5399L18.7519 2.24074H23.3695C23.2757 1.7206 23.2247 1.18342 23.2247 0.637695H16.9201L16.9116 25.9369C16.8094 28.7678 14.4749 31.0444 11.6209 31.0444C10.7348 31.0444 9.89991 30.8227 9.1587 30.4304C10.1129 31.7691 11.6805 32.6474 13.4526 32.6474Z" fill="white"/>
<path d="M32 10.8272V9.42035C30.2365 9.42035 28.6006 8.90019 27.2205 7.9963C28.4473 9.40328 30.1086 10.4265 32 10.8272Z" fill="white"/>
<path d="M23.2244 25.7407V12.9077C25.6952 14.6814 28.7281 15.7301 31.9997 15.7301L32 10.8272C30.1086 10.4265 28.4473 9.40328 27.2205 7.9963C25.2438 6.70882 23.8211 4.64531 23.3695 2.24074H18.7519L18.7433 27.5399C18.641 30.3708 16.3067 32.6474 13.4526 32.6474C11.6804 32.6474 10.1212 31.7691 9.14998 30.439C7.46307 29.5436 6.30441 27.7786 6.30441 25.7407C6.30441 22.816 8.68139 20.437 11.6036 20.437C12.1489 20.437 12.6771 20.5307 13.1713 20.6842V15.7386C6.90079 15.8751 1.84024 21.0253 1.84024 27.3437C1.84024 30.3963 3.02449 33.1761 4.95844 35.2566C6.84129 36.5783 9.14145 37.3628 11.6122 37.3628C18.0104 37.3628 23.2244 32.1443 23.2244 25.7407Z" fill="white"/>
</svg>
