<svg width="42" height="34" viewBox="0 0 42 34" fill="none" xmlns="http://www.w3.org/2000/svg">
<path d="M41.3236 4.31185C39.7967 4.98724 38.1775 5.4308 36.5196 5.62785C38.2671 4.58272 39.575 2.93788 40.1996 0.999853C38.5596 1.97585 36.7616 2.65985 34.8876 3.02985C33.6288 1.68301 31.9603 0.78978 30.1415 0.489023C28.3227 0.188266 26.4555 0.496835 24.8301 1.36676C23.2048 2.23668 21.9124 3.61922 21.1538 5.29944C20.3953 6.97966 20.2131 8.86341 20.6356 10.6579C17.3098 10.4912 14.0563 9.6269 11.0862 8.12118C8.1161 6.61546 5.49587 4.50195 3.39562 1.91785C2.6522 3.19475 2.26153 4.64631 2.26362 6.12385C2.26362 9.02385 3.73962 11.5859 5.98362 13.0859C4.65563 13.044 3.35688 12.6854 2.19562 12.0399V12.1439C2.19602 14.0753 2.86436 15.9471 4.08731 17.442C5.31027 18.9369 7.01258 19.9628 8.90562 20.3459C7.67285 20.6799 6.38023 20.7292 5.12562 20.4899C5.65935 22.1523 6.69963 23.6062 8.1008 24.6481C9.50197 25.6899 11.1939 26.2674 12.9396 26.2998C11.2046 27.6625 9.21797 28.6698 7.09338 29.2642C4.96879 29.8586 2.74787 30.0284 0.557617 29.7638C4.38101 32.2227 8.83181 33.5281 13.3776 33.5238C28.7636 33.5238 37.1776 20.7779 37.1776 9.72385C37.1776 9.36385 37.1676 8.99985 37.1516 8.64385C38.7893 7.46019 40.2028 5.99389 41.3256 4.31385L41.3236 4.31185Z" fill="white"/>
</svg>
