<svg width="40" height="32" viewBox="0 0 40 32" fill="none" xmlns="http://www.w3.org/2000/svg">
<path d="M39.086 4.996C40 8.56 40 16 40 16C40 16 40 23.44 39.086 27.004C38.578 28.974 37.092 30.524 35.21 31.048C31.792 32 20 32 20 32C20 32 8.214 32 4.79 31.048C2.9 30.516 1.416 28.968 0.914 27.004C5.96047e-08 23.44 0 16 0 16C0 16 5.96047e-08 8.56 0.914 4.996C1.422 3.026 2.908 1.476 4.79 0.951999C8.214 -3.57628e-07 20 0 20 0C20 0 31.792 -3.57628e-07 35.21 0.951999C37.1 1.484 38.584 3.032 39.086 4.996ZM16 23L28 16L16 9V23Z" fill="white"/>
</svg>
