<svg width="32" height="24" viewBox="0 0 32 24" fill="none" xmlns="http://www.w3.org/2000/svg">
<g clip-path="url(#clip0_8980_13502)">
<path fill-rule="evenodd" clip-rule="evenodd" d="M0 0H32V24H0V0Z" fill="#229E45"/>
<path fill-rule="evenodd" clip-rule="evenodd" d="M16.0705 21.8002L31.1455 12.0152L15.9805 2.2002L0.855469 12.0352L16.0705 21.8002Z" fill="#F8E509"/>
<path fill-rule="evenodd" clip-rule="evenodd" d="M22.6404 12C22.6404 15.515 19.7854 18.365 16.2604 18.365C15.0007 18.363 13.77 17.9876 12.7236 17.2863C11.6773 16.5849 10.8624 15.589 10.3819 14.4246C9.90149 13.2602 9.77706 11.9794 10.0244 10.7443C10.2717 9.50918 10.8797 8.37509 11.7714 7.48543C12.6632 6.59577 13.7987 5.99048 15.0344 5.74606C16.2701 5.50165 17.5506 5.62909 18.7139 6.11228C19.8771 6.59547 20.8711 7.41271 21.57 8.46069C22.2689 9.50867 22.6414 10.7403 22.6404 12Z" fill="#2B49A3"/>
<path d="M14.1651 15.8151L13.9651 15.7001L13.7651 15.8001L13.8101 15.5751L13.6501 15.4051L13.8751 15.3801L13.9851 15.1801L14.0801 15.3901L14.3001 15.4301L14.1351 15.5801L14.1651 15.8151Z" fill="#FFFFEF"/>
<path d="M18.4351 16.8951L18.2401 16.7801L18.0401 16.8801L18.0801 16.6551L17.9251 16.4901L18.1501 16.4651L18.2551 16.2601L18.3551 16.4701L18.5751 16.5101L18.4051 16.6651L18.4351 16.8951Z" fill="#FFFFEF"/>
<path d="M16.5951 15.1651L16.4251 15.0651L16.2501 15.1551L16.2901 14.9601L16.1501 14.8151L16.3501 14.7951L16.4401 14.6151L16.5201 14.8001L16.7151 14.8351L16.5651 14.9701L16.5951 15.1651Z" fill="#FFFFEF"/>
<path d="M20.9151 14.5451L20.7451 14.4451L20.5701 14.5351L20.6101 14.3401L20.4751 14.2001L20.6701 14.1801L20.7601 14.0051L20.8401 14.1851L21.0301 14.2201L20.8851 14.3501L20.9151 14.5451Z" fill="#FFFFEF"/>
<path d="M16.5201 13.2501L16.3201 13.1401L16.1201 13.2401L16.1601 13.0101L16.0051 12.8451L16.2301 12.8201L16.3351 12.6151L16.4351 12.8251L16.6551 12.8651L16.4851 13.0251L16.5201 13.2501Z" fill="#FFFFEF"/>
<path d="M11.2551 11.2751L11.0551 11.1651L10.8551 11.2651L10.9051 11.0351L10.7401 10.8701L10.9701 10.8451L11.0701 10.6401L11.1701 10.8501L11.3901 10.8901L11.2251 11.0451L11.2551 11.2751Z" fill="#FFFFEF"/>
<path d="M11.8901 13.9051L11.6901 13.7901L11.4901 13.8901L11.5351 13.6651L11.3751 13.5001L11.6001 13.4701L11.7051 13.2701L11.8051 13.4801L12.0251 13.5201L11.8601 13.6751L11.8901 13.9051Z" fill="#FFFFEF"/>
<path d="M18.4601 10.3101L18.2801 10.2101L18.1001 10.3001L18.1401 10.1001L18.0001 9.95012L18.2001 9.92512L18.2951 9.74512L18.3801 9.93512L18.5801 9.97012L18.4301 10.1051L18.4601 10.3101Z" fill="#FFFFEF"/>
<path d="M18.0951 12.0201L17.9601 11.9401L17.8151 12.0101L17.8451 11.8501L17.7351 11.7351L17.8951 11.7151L17.9701 11.5751L18.0351 11.7251L18.1851 11.7501L18.0751 11.8601L18.0951 12.0201Z" fill="#FFFFEF"/>
<path d="M10.8301 14.3051L10.6951 14.3701L10.7251 14.2201L10.6201 14.1101L10.7701 14.0901L10.8401 13.9551L10.9051 14.0951L11.0551 14.1251L10.9401 14.2251L10.9651 14.3801L10.8301 14.3051Z" fill="#FFFFEF"/>
<path d="M20.9501 14.9901L20.8401 14.9351L20.7301 14.9851L20.7551 14.8701L20.6701 14.7901L20.7901 14.7751L20.8501 14.6751L20.9001 14.7751L21.0251 14.8001L20.9301 14.8751L20.9501 14.9901Z" fill="#FFFFEF"/>
<path d="M12.9251 14.3051L13.0551 14.3751L13.0351 14.2251L13.1501 14.1201L13.0001 14.0951L12.9351 13.9551L12.8651 14.0901L12.7151 14.1101L12.8201 14.2201L12.7901 14.3701L12.9251 14.3051Z" fill="#FFFFEF"/>
<path d="M12.6651 15.0001L12.7951 15.0751L12.7751 14.9201L12.8901 14.8201L12.7401 14.7901L12.6751 14.6501L12.6051 14.7851L12.4551 14.8051L12.5601 14.9201L12.5301 15.0701L12.6651 15.0001Z" fill="#FFFFEF"/>
<path d="M17.0151 13.7301L17.1451 13.8101L17.1251 13.6551L17.2351 13.5501L17.0851 13.5251L17.0251 13.3851L16.9551 13.5201L16.8051 13.5351L16.9051 13.6501L16.8751 13.8001L17.0151 13.7301Z" fill="#FFFFEF"/>
<path d="M15.7351 13.7301L15.8701 13.8051L15.8501 13.6551L15.9601 13.5501L15.8101 13.5251L15.7501 13.3801L15.6801 13.5201L15.5301 13.5351L15.6301 13.6501L15.6001 13.8001L15.7351 13.7301Z" fill="#FFFFEF"/>
<path d="M12.3251 13.3151L12.4101 13.3651L12.3951 13.2651L12.4651 13.2001L12.3701 13.1851L12.3301 13.0951L12.2901 13.1801L12.1951 13.1901L12.2601 13.2601L12.2401 13.3551L12.3251 13.3151Z" fill="#FFFFEF"/>
<path d="M20.6551 15.4601L20.7851 15.5351L20.7651 15.3801L20.8801 15.2801L20.7301 15.2501L20.6651 15.1101L20.5951 15.2451L20.4451 15.2651L20.5501 15.3801L20.5201 15.5301L20.6551 15.4601Z" fill="#FFFFEF"/>
<path d="M19.6151 15.6101L19.7251 15.6801L19.7051 15.5501L19.8001 15.4601L19.6751 15.4401L19.6251 15.3201L19.5651 15.4351L19.4401 15.4501L19.5251 15.5401L19.5001 15.6701L19.6151 15.6101Z" fill="#FFFFEF"/>
<path d="M20.1251 15.6051L20.2251 15.6651L20.2101 15.5451L20.2951 15.4651L20.1801 15.4401L20.1301 15.3401L20.0751 15.4401L19.9601 15.4551L20.0401 15.5401L20.0201 15.6551L20.1251 15.6051Z" fill="#FFFFEF"/>
<path d="M21.5651 14.3551L21.6651 14.4051L21.6501 14.2951L21.7301 14.2151L21.6251 14.1951L21.5751 14.0901L21.5251 14.1901L21.4101 14.2051L21.4901 14.2901L21.4651 14.4051L21.5651 14.3551Z" fill="#FFFFEF"/>
<path d="M19.5851 16.3151L19.7101 16.3851L19.6901 16.2451L19.8051 16.1501L19.6551 16.1251L19.5951 15.9951L19.5301 16.1201L19.3801 16.1351L19.4801 16.2351L19.4501 16.3751L19.5851 16.3151Z" fill="#FFFFEF"/>
<path d="M19.6001 16.8851L19.7201 16.9551L19.7001 16.8201L19.8001 16.7201L19.6651 16.6951L19.6101 16.5651L19.5501 16.6901L19.4151 16.7101L19.5101 16.8101L19.4801 16.9501L19.6001 16.8851Z" fill="#FFFFEF"/>
<path d="M18.6551 15.6051L18.7501 15.6651L18.7401 15.5501L18.8201 15.4701L18.7101 15.4501L18.6601 15.3501L18.6101 15.4501L18.5001 15.4601L18.5751 15.5451L18.5551 15.6551L18.6551 15.6051Z" fill="#FFFFEF"/>
<path d="M17.7501 15.6051L17.8501 15.6651L17.8351 15.5501L17.9151 15.4701L17.8101 15.4501L17.7601 15.3501L17.7101 15.4501L17.5951 15.4601L17.6751 15.5451L17.6501 15.6551L17.7501 15.6051Z" fill="#FFFFEF"/>
<path d="M16.2151 14.2651L16.3151 14.3201L16.3001 14.2051L16.3801 14.1301L16.2701 14.1051L16.2201 14.0051L16.1701 14.1051L16.0601 14.1201L16.1401 14.2001L16.1151 14.3151L16.2151 14.2651Z" fill="#FFFFEF"/>
<path d="M16.4051 17.0101L16.4851 17.0551L16.4751 16.9601L16.5451 16.8951L16.4501 16.8801L16.4101 16.7901L16.3651 16.8751L16.2701 16.8851L16.3351 16.9551L16.3151 17.0551L16.4051 17.0101Z" fill="#FFFFEF"/>
<path d="M13.9651 12.5151L14.1651 12.6301L14.1351 12.4001L14.3001 12.2451L14.0801 12.2051L13.9851 11.9951L13.8751 12.1951L13.6501 12.2251L13.8101 12.3901L13.7651 12.6151L13.9651 12.5151Z" fill="#FFFFEF"/>
<path fill-rule="evenodd" clip-rule="evenodd" d="M22.2204 14.2899C22.3443 13.9685 22.4413 13.6374 22.5104 13.2999C19.1204 10.3249 15.3454 8.79991 10.5754 9.11491C10.4024 9.44966 10.2601 9.79943 10.1504 10.1599C15.8004 9.61991 19.9504 12.1199 22.2204 14.2899Z" fill="white"/>
<path fill-rule="evenodd" clip-rule="evenodd" d="M10.8254 9.56508C10.8254 9.49008 10.8404 9.43508 10.8604 9.38508C10.8779 9.34952 10.9016 9.31735 10.9304 9.29008C10.9561 9.26421 10.9867 9.2438 11.0204 9.23008C11.0704 9.21508 11.1204 9.20508 11.1704 9.20508C11.2754 9.20508 11.3554 9.24508 11.4204 9.30508C11.4513 9.3433 11.4744 9.38731 11.4881 9.43452C11.5018 9.48174 11.506 9.53122 11.5004 9.58008C11.5004 9.69008 11.4654 9.78008 11.4004 9.84508C11.367 9.87595 11.3275 9.89947 11.2844 9.91411C11.2414 9.92875 11.1957 9.93419 11.1504 9.93008C11.1057 9.93053 11.0614 9.9219 11.0201 9.90471C10.9789 9.88752 10.9416 9.86213 10.9104 9.83008C10.8482 9.75644 10.8176 9.66117 10.8254 9.56508ZM10.9704 9.56507C10.9704 9.64007 10.9854 9.70007 11.0204 9.74507C11.0554 9.78507 11.1004 9.81007 11.1604 9.81007C11.1864 9.81189 11.2124 9.8079 11.2366 9.79838C11.2608 9.78887 11.2826 9.77407 11.3004 9.75507C11.3354 9.71507 11.3504 9.65507 11.3554 9.57007C11.3554 9.49007 11.3454 9.43007 11.3054 9.39007C11.2891 9.36992 11.2686 9.35364 11.2452 9.34239C11.2219 9.33115 11.1963 9.32524 11.1704 9.32507C11.1441 9.32423 11.1179 9.32917 11.0937 9.33954C11.0696 9.3499 11.0479 9.36545 11.0304 9.38507C10.9904 9.42507 10.9754 9.48507 10.9704 9.56507Z" fill="#309E3A"/>
<path d="M20.8154 12.6851L20.7004 12.6201L20.6954 12.6151C20.6599 12.6753 20.6491 12.747 20.6654 12.8151C20.6804 12.8751 20.7254 12.9301 20.8004 12.9801C20.8504 13.0151 20.8954 13.0351 20.9404 13.0451C20.981 13.0526 21.0229 13.0473 21.0604 13.0301C21.0989 13.0152 21.132 12.9891 21.1554 12.9551C21.1777 12.9252 21.191 12.8895 21.1937 12.8523C21.1963 12.8151 21.1883 12.7778 21.1704 12.7451C21.1504 12.7151 21.1204 12.6701 21.0704 12.6201C21.0204 12.5701 20.9954 12.5301 20.9904 12.5101C20.9854 12.4901 20.9854 12.4751 20.9954 12.4601C20.9999 12.4522 21.0065 12.4457 21.0144 12.4413C21.0224 12.4369 21.0313 12.4348 21.0404 12.4351C21.0733 12.4372 21.1047 12.4494 21.1304 12.4701C21.1654 12.4901 21.1854 12.5151 21.1904 12.5401C21.2004 12.5651 21.1954 12.5951 21.1804 12.6251L21.3004 12.7001C21.3167 12.6762 21.3279 12.6492 21.333 12.6208C21.3382 12.5924 21.3373 12.5631 21.3304 12.5351C21.3154 12.4751 21.2704 12.4251 21.2004 12.3751C21.1617 12.3463 21.1174 12.3259 21.0704 12.3151C21.032 12.3064 20.9918 12.3099 20.9554 12.3251C20.9151 12.3437 20.8829 12.3761 20.8645 12.4165C20.8462 12.4569 20.8429 12.5025 20.8554 12.5451C20.8735 12.6013 20.9043 12.6526 20.9454 12.6951C20.9854 12.7351 21.0104 12.7701 21.0204 12.7851C21.0327 12.7994 21.0413 12.8166 21.0454 12.8351C21.0477 12.8508 21.0441 12.8668 21.0354 12.8801C21.0204 12.9001 21.0004 12.9151 20.9704 12.9151C20.9404 12.9201 20.9054 12.9051 20.8704 12.8801C20.8371 12.8616 20.8121 12.8313 20.8004 12.7951C20.7929 12.7578 20.7982 12.719 20.8154 12.6851Z" fill="#309E3A"/>
<path d="M20.2454 12.3051L20.1204 12.2401C20.0882 12.3017 20.0811 12.3733 20.1004 12.4401C20.126 12.5087 20.1758 12.5656 20.2404 12.6001C20.2847 12.6277 20.3339 12.6464 20.3854 12.6551C20.426 12.6626 20.4679 12.6573 20.5054 12.6401C20.5426 12.6228 20.5739 12.595 20.5954 12.5601C20.6154 12.5287 20.6261 12.4923 20.6261 12.4551C20.6261 12.4179 20.6154 12.3814 20.5954 12.3501C20.5804 12.3201 20.5454 12.2801 20.4954 12.2301C20.4454 12.1801 20.4154 12.1401 20.4104 12.1201C20.4054 12.1001 20.4054 12.0851 20.4154 12.0701C20.4195 12.0629 20.4253 12.0569 20.4323 12.0526C20.4392 12.0482 20.4472 12.0456 20.4554 12.0451C20.4895 12.0447 20.5227 12.0552 20.5504 12.0751C20.5854 12.0951 20.6054 12.1201 20.6154 12.1451C20.6254 12.1701 20.6204 12.1951 20.6054 12.2301L20.7304 12.3001C20.7458 12.2749 20.7555 12.2466 20.759 12.2173C20.7624 12.1879 20.7595 12.1582 20.7504 12.1301C20.7354 12.0751 20.6904 12.0251 20.6154 11.9751C20.5759 11.9499 20.5316 11.9329 20.4854 11.9251C20.4481 11.919 20.4098 11.9242 20.3754 11.9401C20.3423 11.9548 20.3144 11.9792 20.2954 12.0101C20.281 12.0329 20.2717 12.0586 20.2682 12.0854C20.2648 12.1121 20.2672 12.1393 20.2754 12.1651C20.2854 12.2051 20.3204 12.2501 20.3754 12.3051C20.4031 12.3341 20.4298 12.3642 20.4554 12.3951C20.4704 12.4101 20.4804 12.4301 20.4804 12.4451C20.4815 12.4591 20.478 12.4732 20.4704 12.4851C20.4554 12.5101 20.4354 12.5251 20.4054 12.5251C20.3754 12.5301 20.3454 12.5201 20.3054 12.4951C20.2731 12.4779 20.2482 12.4494 20.2354 12.4151C20.2264 12.3783 20.2299 12.3396 20.2454 12.3051Z" fill="#309E3A"/>
<path d="M19.7754 11.4501L19.4104 12.0501H19.4154L19.8654 12.3251L19.9254 12.2251L19.5904 12.0251L19.6904 11.8601L19.9904 12.0451L20.0554 11.9451L19.7554 11.7601L19.8354 11.6251L20.1554 11.8251L20.2154 11.7251L19.7754 11.4501Z" fill="#309E3A"/>
<path d="M18.4304 11.1001L18.3754 11.2001L18.5204 11.2751L18.4804 11.3551C18.4506 11.3596 18.4202 11.3596 18.3904 11.3551C18.3604 11.3551 18.3304 11.3451 18.3054 11.3301C18.281 11.3186 18.2594 11.3019 18.2421 11.2812C18.2248 11.2604 18.2123 11.2362 18.2054 11.2101C18.1904 11.1551 18.2054 11.0901 18.2404 11.0201C18.2754 10.9501 18.3204 10.9051 18.3704 10.8901C18.3958 10.8815 18.4228 10.8784 18.4495 10.881C18.4762 10.8836 18.5021 10.8918 18.5254 10.9051C18.5654 10.9251 18.5904 10.9451 18.6054 10.9751C18.6201 11.0063 18.6237 11.0416 18.6154 11.0751L18.7504 11.1151C18.7667 11.0569 18.7614 10.9947 18.7354 10.9401C18.7104 10.8851 18.6604 10.8351 18.5804 10.8001C18.5204 10.7651 18.4704 10.7501 18.4204 10.7501C18.3561 10.7493 18.2932 10.7685 18.2404 10.8051C18.1852 10.8434 18.1404 10.895 18.1104 10.9551C18.08 11.0122 18.0629 11.0754 18.0604 11.1401C18.0585 11.2022 18.076 11.2633 18.1104 11.3151C18.1482 11.3708 18.1999 11.4156 18.2604 11.4451C18.3118 11.4718 18.3678 11.4887 18.4254 11.4951C18.4854 11.5001 18.5354 11.4951 18.5754 11.4851L18.7004 11.2351L18.4304 11.1001Z" fill="#309E3A"/>
<path d="M13.9654 9.38508L13.8654 10.0851L13.9954 10.1051L14.0754 9.55508L14.1304 10.1201L14.2654 10.1401L14.4854 9.61508L14.4004 10.1601L14.5354 10.1801L14.6354 9.49008L14.4254 9.46008L14.2304 9.91008L14.1754 9.42008L13.9654 9.38508Z" fill="#309E3A"/>
<path d="M13.2254 9.30008L13.1604 10.0001L13.6904 10.0501L13.7004 9.93008L13.3104 9.89508L13.3254 9.70508L13.6754 9.74008L13.6904 9.62008L13.3404 9.58508L13.3554 9.43508L13.7304 9.47008L13.7404 9.35008L13.2254 9.30008Z" fill="#309E3A"/>
<path fill-rule="evenodd" clip-rule="evenodd" d="M11.6604 9.22508L11.6504 9.92508H11.7954V9.63508H11.8254C11.8491 9.63508 11.8726 9.63845 11.8954 9.64508C11.9128 9.65098 11.9283 9.66132 11.9404 9.67508L12.0104 9.77508L12.1104 9.93508H12.2804L12.1954 9.79508C12.1654 9.74008 12.1404 9.70008 12.1204 9.68008L12.0454 9.62008C12.0959 9.61585 12.1434 9.59471 12.1804 9.56008C12.2129 9.52464 12.2308 9.47818 12.2304 9.43008C12.2304 9.38508 12.2204 9.34508 12.2004 9.31508C12.1804 9.28508 12.1554 9.26008 12.1204 9.25008C12.0854 9.23508 12.0354 9.22508 11.9604 9.22508H11.6604ZM11.9004 9.52508H11.8004V9.34508L11.9154 9.35008H12.0154C12.0354 9.35508 12.0554 9.36508 12.0654 9.38008C12.0804 9.39008 12.0854 9.41008 12.0854 9.44008C12.0854 9.45508 12.0804 9.48008 12.0704 9.49008C12.0604 9.50008 12.0454 9.51508 12.0304 9.51508C12.0154 9.52508 11.9704 9.52508 11.9004 9.52508Z" fill="#309E3A"/>
<path fill-rule="evenodd" clip-rule="evenodd" d="M12.4504 9.26007L12.7104 9.27507C12.7654 9.27507 12.8104 9.28007 12.8404 9.29007C12.8793 9.30419 12.9138 9.32834 12.9404 9.36007C12.9692 9.39503 12.9897 9.43605 13.0004 9.48007C13.0154 9.52507 13.0204 9.58007 13.0154 9.64507C13.0154 9.6961 13.0069 9.74678 12.9904 9.79507C12.9704 9.84507 12.9404 9.88507 12.9054 9.91507C12.8763 9.93907 12.8421 9.95617 12.8054 9.96507C12.7754 9.97507 12.7304 9.97507 12.6804 9.97507L12.4154 9.96007L12.4504 9.26007ZM12.5854 9.38507L12.5604 9.85007H12.7504C12.7754 9.85007 12.7954 9.84007 12.8104 9.82507C12.8254 9.81007 12.8404 9.79007 12.8504 9.76007C12.8604 9.73007 12.8704 9.68507 12.8704 9.63007L12.8654 9.50507C12.8583 9.47871 12.8445 9.45461 12.8254 9.43507C12.8088 9.41837 12.7881 9.4063 12.7654 9.40007C12.7276 9.39165 12.6891 9.38663 12.6504 9.38507H12.5854Z" fill="#309E3A"/>
<path fill-rule="evenodd" clip-rule="evenodd" d="M16.0454 9.83008L15.8804 10.5101L16.0204 10.5451L16.0804 10.2851L16.1654 10.3101C16.2304 10.3251 16.2804 10.3351 16.3154 10.3351C16.344 10.3351 16.3723 10.3289 16.3982 10.3168C16.4241 10.3047 16.4471 10.287 16.4654 10.2651C16.4904 10.2401 16.5054 10.2051 16.5154 10.1651C16.5254 10.1101 16.5254 10.0651 16.5054 10.0251C16.4904 9.98008 16.4604 9.95008 16.4254 9.93008L16.2654 9.88008L16.0454 9.83008ZM16.1104 10.1701L16.1504 9.98007H16.1554L16.2204 9.99507L16.3154 10.0201C16.3367 10.0288 16.3544 10.0447 16.3654 10.0651C16.3754 10.0851 16.3754 10.1051 16.3754 10.1301C16.3714 10.1493 16.3616 10.1668 16.3473 10.1803C16.333 10.1937 16.3148 10.2024 16.2954 10.2051C16.2786 10.2093 16.2477 10.2029 16.2085 10.1948L16.1854 10.1901L16.1104 10.1701Z" fill="#309E3A"/>
<path fill-rule="evenodd" clip-rule="evenodd" d="M16.5304 10.7051L16.7654 10.0451L17.0404 10.1451C17.1154 10.1701 17.1604 10.1951 17.1904 10.2151C17.2154 10.2401 17.2354 10.2651 17.2404 10.3051L17.241 10.3097C17.2458 10.3478 17.25 10.3816 17.2404 10.4201C17.2204 10.4701 17.1904 10.5051 17.1504 10.5301C17.1104 10.5501 17.0604 10.5551 17.0004 10.5451C17.0204 10.5701 17.0404 10.5951 17.0504 10.6251L17.0904 10.7601L17.1204 10.9151L16.9654 10.8601L16.9154 10.6801C16.9063 10.6394 16.8946 10.5993 16.8804 10.5601C16.8738 10.5445 16.8635 10.5308 16.8504 10.5201C16.8404 10.5051 16.8204 10.4951 16.7854 10.4851L16.7604 10.4751L16.6604 10.7551L16.5304 10.7051ZM16.8004 10.3701L16.8954 10.4051C16.9604 10.4301 17.0004 10.4401 17.0204 10.4401C17.0354 10.4401 17.0504 10.4401 17.0654 10.4251C17.0804 10.4151 17.0904 10.4001 17.0954 10.3801C17.1054 10.3601 17.1054 10.3401 17.0954 10.3201C17.088 10.3007 17.0738 10.2847 17.0554 10.2751L16.8554 10.2051L16.7954 10.3701H16.8004Z" fill="#309E3A"/>
<path fill-rule="evenodd" clip-rule="evenodd" d="M17.4354 10.5201C17.3965 10.5671 17.3676 10.6215 17.3504 10.6801C17.3336 10.7251 17.3258 10.773 17.3275 10.8211C17.3292 10.8691 17.3404 10.9164 17.3604 10.9601C17.382 11.0007 17.4118 11.0364 17.448 11.0648C17.4841 11.0932 17.5258 11.1137 17.5704 11.1251C17.6654 11.1551 17.7554 11.1501 17.8304 11.1051C17.9146 11.0555 17.9757 10.9746 18.0004 10.8801C18.0304 10.7701 18.0304 10.6751 17.9904 10.5951C17.9691 10.5543 17.9393 10.5185 17.9031 10.49C17.8669 10.4616 17.8251 10.4411 17.7804 10.4301C17.7254 10.4101 17.6754 10.4101 17.6254 10.4101C17.5903 10.4157 17.5564 10.4276 17.5254 10.4451C17.4912 10.4645 17.4607 10.4899 17.4354 10.5201ZM17.4904 10.9101C17.4654 10.8601 17.4704 10.7951 17.4904 10.7201C17.5154 10.6401 17.5504 10.5901 17.6004 10.5601C17.6228 10.5469 17.6479 10.5387 17.6738 10.5361C17.6997 10.5335 17.7258 10.5366 17.7504 10.5451C17.775 10.5526 17.7975 10.5655 17.8166 10.5828C17.8356 10.6001 17.8505 10.6213 17.8604 10.6451C17.8854 10.6951 17.8854 10.7551 17.8604 10.8301C17.8354 10.9101 17.8054 10.9651 17.7554 10.9901C17.7054 11.0201 17.6554 11.0251 17.6054 11.0101C17.5504 10.9901 17.5154 10.9601 17.4904 10.9101Z" fill="#309E3A"/>
<path fill-rule="evenodd" clip-rule="evenodd" d="M18.7154 11.6551L19.0354 11.0351L19.3004 11.1701C19.3503 11.194 19.396 11.2262 19.4354 11.2651C19.4604 11.2901 19.4754 11.3201 19.4754 11.3601C19.4754 11.4001 19.4754 11.4351 19.4554 11.4701C19.4362 11.515 19.4004 11.5509 19.3554 11.5701C19.3054 11.5801 19.2554 11.5801 19.2004 11.5601C19.2171 11.5852 19.2269 11.6103 19.2355 11.6325L19.2404 11.6451C19.2504 11.6751 19.2554 11.7201 19.2604 11.7851L19.2704 11.9451L19.1204 11.8701L19.1004 11.6851C19.098 11.6431 19.093 11.6014 19.0854 11.5601C19.082 11.5414 19.0733 11.524 19.0604 11.5101L19.0004 11.4751L18.9754 11.4601L18.8404 11.7201L18.7154 11.6551ZM19.0254 11.3601L19.1204 11.4101C19.1804 11.4401 19.2204 11.4601 19.2354 11.4601C19.2504 11.4601 19.2704 11.4601 19.2854 11.4501C19.3004 11.4451 19.3104 11.4301 19.3204 11.4101C19.3304 11.3901 19.3354 11.3701 19.3304 11.3501C19.3242 11.3302 19.312 11.3127 19.2954 11.3001C19.2661 11.2821 19.2361 11.2654 19.2054 11.2501L19.1054 11.2001L19.0254 11.3601Z" fill="#309E3A"/>
<path fill-rule="evenodd" clip-rule="evenodd" d="M21.4304 12.8051C21.3803 12.8394 21.3377 12.8837 21.3054 12.9351C21.2454 13.0251 21.2204 13.1151 21.2354 13.2051C21.2437 13.2502 21.2614 13.293 21.2872 13.3309C21.313 13.3688 21.3465 13.4008 21.3854 13.4251C21.4224 13.452 21.4647 13.4709 21.5095 13.4804C21.5543 13.4898 21.6006 13.4897 21.6454 13.4801C21.7393 13.457 21.8202 13.3977 21.8704 13.3151C21.9304 13.2201 21.9554 13.1251 21.9404 13.0401C21.932 12.995 21.9144 12.9522 21.8886 12.9143C21.8627 12.8764 21.8293 12.8443 21.7904 12.8201C21.7454 12.7901 21.7004 12.7701 21.6504 12.7601C21.6141 12.7527 21.5767 12.7527 21.5404 12.7601C21.5013 12.7683 21.464 12.7835 21.4304 12.8051ZM21.3754 13.1951C21.3654 13.1401 21.3804 13.0801 21.4304 13.0151H21.4254C21.4754 12.9451 21.5254 12.9051 21.5754 12.8951C21.6254 12.8801 21.6804 12.8851 21.7254 12.9201C21.7704 12.9551 21.8004 13.0001 21.8054 13.0501C21.8154 13.1001 21.7954 13.1601 21.7504 13.2301C21.7054 13.3001 21.6554 13.3351 21.6054 13.3501C21.5554 13.3651 21.5054 13.3551 21.4554 13.3201C21.4339 13.3061 21.4157 13.2878 21.4019 13.2662C21.3881 13.2446 21.3791 13.2204 21.3754 13.1951Z" fill="#309E3A"/>
<path d="M15.2054 9.73508L15.0904 10.2251L15.4654 10.3101L15.4854 10.2301L15.2104 10.1651L15.2404 10.0301L15.4854 10.0901L15.5054 10.0051L15.2604 9.95008L15.2854 9.84008L15.5504 9.90008L15.5654 9.82008L15.2054 9.73508Z" fill="#309E3A"/>
</g>
<defs>
<clipPath id="clip0_8980_13502">
<rect width="32" height="24" rx="4" fill="white"/>
</clipPath>
</defs>
</svg>
