<svg width="48" height="48" viewBox="0 0 48 48" fill="none" xmlns="http://www.w3.org/2000/svg">
<path fill-rule="evenodd" clip-rule="evenodd" d="M47.9782 31.3462C47.9782 32.2699 47.2286 33.0195 46.305 33.0195L31 33.0195C30.0764 33.0195 29.3267 32.2699 29.3267 31.3462C29.3267 30.4226 30.0764 29.673 31 29.673L46.305 29.673C47.2286 29.673 47.9782 30.4226 47.9782 31.3462Z" fill="#8ACC0D"/>
<path fill-rule="evenodd" clip-rule="evenodd" d="M47.976 24.0005C47.976 24.9242 47.2264 25.6738 46.3028 25.6738L23.6733 25.6738C22.7496 25.6738 22 24.9242 22 24.0005C22 23.0769 22.7496 22.3273 23.6733 22.3273L46.3028 22.3273C47.2264 22.3273 47.976 23.0769 47.976 24.0005Z" fill="#8ACC0D"/>
<path fill-rule="evenodd" clip-rule="evenodd" d="M47.9761 16.6548C47.9761 17.5785 47.2264 18.3281 46.3028 18.3281L39.0876 18.3281C38.1639 18.3281 37.4143 17.5785 37.4143 16.6548C37.4143 15.7312 38.1639 14.9816 39.0876 14.9816L46.3028 14.9816C47.2264 14.9816 47.9761 15.7312 47.9761 16.6548Z" fill="#8ACC0D"/>
</svg>
