<svg width="24" height="24" viewBox="0 0 24 24" fill="none" xmlns="http://www.w3.org/2000/svg">
<path d="M14.6667 21.3333H21.3333V2.66667H2.66667V21.3333H12V14.6667H9.33333V12H12V9.79467C12 8.012 12.1867 7.36533 12.5333 6.71333C12.8748 6.06825 13.4026 5.54092 14.048 5.2C14.5573 4.92667 15.1907 4.76267 16.2973 4.692C16.736 4.664 17.304 4.69867 18.0013 4.79867V7.332H17.3333C16.1107 7.332 15.6053 7.38933 15.304 7.55067C15.1242 7.64314 14.9778 7.78953 14.8853 7.96933C14.7253 8.27067 14.6667 8.56933 14.6667 9.79333V12H18L17.3333 14.6667H14.6667V21.3333ZM1.33333 0H22.6667C23.0203 0 23.3594 0.140476 23.6095 0.390524C23.8595 0.640573 24 0.979711 24 1.33333V22.6667C24 23.0203 23.8595 23.3594 23.6095 23.6095C23.3594 23.8595 23.0203 24 22.6667 24H1.33333C0.979711 24 0.640573 23.8595 0.390524 23.6095C0.140476 23.3594 0 23.0203 0 22.6667V1.33333C0 0.979711 0.140476 0.640573 0.390524 0.390524C0.640573 0.140476 0.979711 0 1.33333 0Z" fill="#B0B4BD"/>
</svg>
