<svg width="28" height="28" viewBox="0 0 28 28" fill="none" xmlns="http://www.w3.org/2000/svg">
<path d="M14.0003 10.0003C12.9395 10.0003 11.922 10.4218 11.1719 11.1719C10.4218 11.922 10.0003 12.9395 10.0003 14.0003C10.0003 15.0612 10.4218 16.0786 11.1719 16.8288C11.922 17.5789 12.9395 18.0003 14.0003 18.0003C15.0612 18.0003 16.0786 17.5789 16.8288 16.8288C17.5789 16.0786 18.0003 15.0612 18.0003 14.0003C18.0003 12.9395 17.5789 11.922 16.8288 11.1719C16.0786 10.4218 15.0612 10.0003 14.0003 10.0003ZM14.0003 7.33366C15.7684 7.33366 17.4641 8.03604 18.7144 9.28628C19.9646 10.5365 20.667 12.2322 20.667 14.0003C20.667 15.7684 19.9646 17.4641 18.7144 18.7144C17.4641 19.9646 15.7684 20.667 14.0003 20.667C12.2322 20.667 10.5365 19.9646 9.28628 18.7144C8.03604 17.4641 7.33366 15.7684 7.33366 14.0003C7.33366 12.2322 8.03604 10.5365 9.28628 9.28628C10.5365 8.03604 12.2322 7.33366 14.0003 7.33366ZM22.667 7.00033C22.667 7.44235 22.4914 7.86628 22.1788 8.17884C21.8663 8.4914 21.4424 8.66699 21.0003 8.66699C20.5583 8.66699 20.1344 8.4914 19.8218 8.17884C19.5093 7.86628 19.3337 7.44235 19.3337 7.00033C19.3337 6.5583 19.5093 6.13438 19.8218 5.82181C20.1344 5.50925 20.5583 5.33366 21.0003 5.33366C21.4424 5.33366 21.8663 5.50925 22.1788 5.82181C22.4914 6.13438 22.667 6.5583 22.667 7.00033ZM14.0003 3.33366C10.7017 3.33366 10.163 3.34299 8.62833 3.41099C7.58299 3.46033 6.88166 3.60033 6.23099 3.85366C5.65233 4.07766 5.23499 4.34566 4.79099 4.79099C4.37367 5.19419 4.0528 5.68644 3.85233 6.23099C3.59899 6.88433 3.45899 7.58433 3.41099 8.62833C3.34166 10.1003 3.33366 10.615 3.33366 14.0003C3.33366 17.299 3.34299 17.8377 3.41099 19.3723C3.46033 20.4163 3.60033 21.119 3.85233 21.7683C4.07899 22.3483 4.34566 22.7657 4.78833 23.2083C5.23766 23.6563 5.65499 23.9243 6.22833 24.1457C6.88699 24.4003 7.58833 24.5417 8.62833 24.5897C10.1003 24.659 10.615 24.667 14.0003 24.667C17.299 24.667 17.8377 24.6577 19.3723 24.5897C20.415 24.5403 21.1177 24.4003 21.7683 24.1483C22.3457 23.923 22.7657 23.655 23.2083 23.2123C23.6577 22.763 23.9257 22.3457 24.147 21.7723C24.4003 21.115 24.5417 20.4123 24.5897 19.3723C24.659 17.9003 24.667 17.3857 24.667 14.0003C24.667 10.7017 24.6577 10.163 24.5897 8.62833C24.5403 7.58566 24.4003 6.88166 24.147 6.23099C23.9461 5.68699 23.6258 5.19494 23.2097 4.79099C22.8066 4.37345 22.3143 4.05255 21.7697 3.85233C21.1163 3.59899 20.415 3.45899 19.3723 3.41099C17.9003 3.34166 17.3857 3.33366 14.0003 3.33366ZM14.0003 0.666992C17.623 0.666992 18.075 0.680325 19.4963 0.746992C20.9163 0.813659 21.883 1.03633 22.7337 1.36699C23.6137 1.70566 24.355 2.16433 25.0963 2.90433C25.7743 3.57085 26.2989 4.37711 26.6337 5.26699C26.963 6.11633 27.187 7.08433 27.2537 8.50433C27.3163 9.92566 27.3337 10.3777 27.3337 14.0003C27.3337 17.623 27.3203 18.075 27.2537 19.4963C27.187 20.9163 26.963 21.883 26.6337 22.7337C26.2999 23.624 25.7752 24.4305 25.0963 25.0963C24.4296 25.7741 23.6234 26.2987 22.7337 26.6337C21.8843 26.963 20.9163 27.187 19.4963 27.2537C18.075 27.3163 17.623 27.3337 14.0003 27.3337C10.3777 27.3337 9.92566 27.3203 8.50433 27.2537C7.08433 27.187 6.11766 26.963 5.26699 26.6337C4.37676 26.2996 3.57036 25.7749 2.90433 25.0963C2.2262 24.4299 1.70157 23.6236 1.36699 22.7337C1.03633 21.8843 0.813659 20.9163 0.746992 19.4963C0.684325 18.075 0.666992 17.623 0.666992 14.0003C0.666992 10.3777 0.680325 9.92566 0.746992 8.50433C0.813659 7.08299 1.03633 6.11766 1.36699 5.26699C1.70064 4.37656 2.2254 3.57009 2.90433 2.90433C3.57055 2.22597 4.3769 1.7013 5.26699 1.36699C6.11766 1.03633 7.08299 0.813659 8.50433 0.746992C9.92566 0.684325 10.3777 0.666992 14.0003 0.666992Z" fill="#8ACC0D"/>
</svg>
