<svg width="240" height="88" viewBox="0 0 240 88" fill="none" xmlns="http://www.w3.org/2000/svg">
<path opacity="0.4" d="M85.1989 18.8636V8.36364H86.3324V9.5767H86.4716C86.5578 9.44413 86.6771 9.27509 86.8295 9.0696C86.9853 8.8608 87.2074 8.67519 87.4957 8.51278C87.7874 8.34706 88.1818 8.2642 88.679 8.2642C89.322 8.2642 89.8887 8.42495 90.3793 8.74645C90.8698 9.06794 91.2526 9.52367 91.5277 10.1136C91.8028 10.7036 91.9403 11.3996 91.9403 12.2017C91.9403 13.0104 91.8028 13.7114 91.5277 14.3047C91.2526 14.8946 90.8714 15.352 90.3842 15.6768C89.897 15.9983 89.3352 16.1591 88.6989 16.1591C88.2083 16.1591 87.8156 16.0779 87.5206 15.9155C87.2256 15.7498 86.9986 15.5625 86.8395 15.3537C86.6804 15.1416 86.5578 14.9659 86.4716 14.8267H86.3722V18.8636H85.1989ZM86.3523 12.1818C86.3523 12.7585 86.4368 13.2673 86.6058 13.7081C86.7749 14.1456 87.0218 14.4886 87.3466 14.7372C87.6714 14.9825 88.0691 15.1051 88.5398 15.1051C89.0303 15.1051 89.4396 14.9759 89.7678 14.7173C90.0992 14.4555 90.3478 14.1042 90.5135 13.6634C90.6825 13.2192 90.767 12.7254 90.767 12.1818C90.767 11.6449 90.6842 11.161 90.5185 10.7301C90.3561 10.2959 90.1091 9.95289 89.7777 9.70099C89.4496 9.44579 89.0369 9.31818 88.5398 9.31818C88.0625 9.31818 87.6615 9.43916 87.3366 9.68111C87.0118 9.91974 86.7666 10.2545 86.6009 10.6854C86.4351 11.1129 86.3523 11.6117 86.3523 12.1818ZM93.7301 16V8.36364H94.8636V9.51705H94.9432C95.0824 9.1392 95.3343 8.83262 95.6989 8.5973C96.0634 8.36198 96.4744 8.24432 96.9318 8.24432C97.018 8.24432 97.1257 8.24597 97.255 8.24929C97.3842 8.2526 97.482 8.25758 97.5483 8.2642V9.45739C97.5085 9.44744 97.4174 9.43253 97.2749 9.41264C97.1357 9.38944 96.9882 9.37784 96.8324 9.37784C96.4612 9.37784 96.1297 9.45573 95.8381 9.61151C95.5497 9.76397 95.321 9.97609 95.152 10.2479C94.9863 10.5163 94.9034 10.8229 94.9034 11.1676V16H93.7301ZM101.809 16.1591C101.12 16.1591 100.515 15.995 99.9943 15.6669C99.4773 15.3388 99.0729 14.8797 98.7812 14.2898C98.4929 13.6998 98.3487 13.0104 98.3487 12.2216C98.3487 11.4261 98.4929 10.7318 98.7812 10.1385C99.0729 9.54522 99.4773 9.08452 99.9943 8.75639C100.515 8.42827 101.12 8.2642 101.809 8.2642C102.498 8.2642 103.102 8.42827 103.619 8.75639C104.139 9.08452 104.543 9.54522 104.832 10.1385C105.123 10.7318 105.269 11.4261 105.269 12.2216C105.269 13.0104 105.123 13.6998 104.832 14.2898C104.543 14.8797 104.139 15.3388 103.619 15.6669C103.102 15.995 102.498 16.1591 101.809 16.1591ZM101.809 15.1051C102.333 15.1051 102.763 14.9709 103.102 14.7024C103.44 14.4339 103.69 14.081 103.852 13.6435C104.015 13.206 104.096 12.732 104.096 12.2216C104.096 11.7112 104.015 11.2356 103.852 10.7947C103.69 10.3539 103.44 9.99763 103.102 9.72585C102.763 9.45407 102.333 9.31818 101.809 9.31818C101.285 9.31818 100.854 9.45407 100.516 9.72585C100.178 9.99763 99.928 10.3539 99.7656 10.7947C99.6032 11.2356 99.522 11.7112 99.522 12.2216C99.522 12.732 99.6032 13.206 99.7656 13.6435C99.928 14.081 100.178 14.4339 100.516 14.7024C100.854 14.9709 101.285 15.1051 101.809 15.1051ZM109.944 16.1591C109.307 16.1591 108.746 15.9983 108.258 15.6768C107.771 15.352 107.39 14.8946 107.115 14.3047C106.84 13.7114 106.702 13.0104 106.702 12.2017C106.702 11.3996 106.84 10.7036 107.115 10.1136C107.39 9.52367 107.773 9.06794 108.263 8.74645C108.754 8.42495 109.321 8.2642 109.964 8.2642C110.461 8.2642 110.854 8.34706 111.142 8.51278C111.434 8.67519 111.656 8.8608 111.808 9.0696C111.964 9.27509 112.085 9.44413 112.171 9.5767H112.27V5.81818H113.444V16H112.31V14.8267H112.171C112.085 14.9659 111.962 15.1416 111.803 15.3537C111.644 15.5625 111.417 15.7498 111.122 15.9155C110.827 16.0779 110.434 16.1591 109.944 16.1591ZM110.103 15.1051C110.573 15.1051 110.971 14.9825 111.296 14.7372C111.621 14.4886 111.868 14.1456 112.037 13.7081C112.206 13.2673 112.29 12.7585 112.29 12.1818C112.29 11.6117 112.207 11.1129 112.042 10.6854C111.876 10.2545 111.631 9.91974 111.306 9.68111C110.981 9.43916 110.58 9.31818 110.103 9.31818C109.606 9.31818 109.191 9.44579 108.86 9.70099C108.532 9.95289 108.285 10.2959 108.119 10.7301C107.957 11.161 107.876 11.6449 107.876 12.1818C107.876 12.7254 107.958 13.2192 108.124 13.6634C108.293 14.1042 108.542 14.4555 108.87 14.7173C109.201 14.9759 109.612 15.1051 110.103 15.1051ZM120.568 12.8778V8.36364H121.741V16H120.568V14.7074H120.488C120.309 15.0952 120.031 15.425 119.653 15.6967C119.275 15.9652 118.798 16.0994 118.221 16.0994C117.744 16.0994 117.32 15.995 116.949 15.7862C116.577 15.5741 116.286 15.2559 116.074 14.8317C115.862 14.4041 115.756 13.8655 115.756 13.2159V8.36364H116.929V13.1364C116.929 13.6932 117.085 14.1373 117.396 14.4688C117.711 14.8002 118.112 14.9659 118.599 14.9659C118.891 14.9659 119.188 14.8913 119.489 14.7422C119.794 14.593 120.049 14.3643 120.255 14.0561C120.464 13.7479 120.568 13.3551 120.568 12.8778ZM126.993 16.1591C126.277 16.1591 125.66 15.9901 125.143 15.652C124.626 15.3139 124.228 14.8482 123.95 14.255C123.672 13.6617 123.532 12.9839 123.532 12.2216C123.532 11.446 123.675 10.7616 123.96 10.1683C124.248 9.57173 124.649 9.10606 125.163 8.77131C125.68 8.43324 126.283 8.2642 126.973 8.2642C127.51 8.2642 127.993 8.36364 128.424 8.5625C128.855 8.76136 129.208 9.03977 129.483 9.39773C129.758 9.75568 129.929 10.1733 129.995 10.6506H128.822C128.733 10.3026 128.534 9.99432 128.225 9.72585C127.921 9.45407 127.51 9.31818 126.993 9.31818C126.535 9.31818 126.134 9.4375 125.789 9.67614C125.448 9.91146 125.181 10.2446 124.989 10.6754C124.8 11.103 124.706 11.6051 124.706 12.1818C124.706 12.7718 124.798 13.2855 124.984 13.723C125.173 14.1605 125.438 14.5002 125.779 14.7422C126.124 14.9841 126.529 15.1051 126.993 15.1051C127.297 15.1051 127.574 15.0521 127.823 14.946C128.071 14.84 128.282 14.6875 128.454 14.4886C128.627 14.2898 128.749 14.0511 128.822 13.7727H129.995C129.929 14.2235 129.765 14.6295 129.503 14.9908C129.245 15.3487 128.902 15.6338 128.474 15.8459C128.05 16.0547 127.556 16.1591 126.993 16.1591ZM135.032 8.36364V9.35795H131.074V8.36364H135.032ZM132.228 6.53409H133.401V13.8125C133.401 14.1439 133.449 14.3925 133.545 14.5582C133.645 14.7206 133.77 14.83 133.923 14.8864C134.079 14.9394 134.243 14.9659 134.415 14.9659C134.544 14.9659 134.65 14.9593 134.733 14.946C134.816 14.9295 134.882 14.9162 134.932 14.9062L135.171 15.9602C135.091 15.9901 134.98 16.0199 134.838 16.0497C134.695 16.0829 134.515 16.0994 134.296 16.0994C133.964 16.0994 133.64 16.0282 133.321 15.8857C133.007 15.7431 132.745 15.526 132.536 15.2344C132.33 14.9427 132.228 14.5748 132.228 14.1307V6.53409ZM140.893 16V5.81818H142.066V9.5767H142.166C142.252 9.44413 142.371 9.27509 142.524 9.0696C142.68 8.8608 142.902 8.67519 143.19 8.51278C143.482 8.34706 143.876 8.2642 144.373 8.2642C145.016 8.2642 145.583 8.42495 146.074 8.74645C146.564 9.06794 146.947 9.52367 147.222 10.1136C147.497 10.7036 147.635 11.3996 147.635 12.2017C147.635 13.0104 147.497 13.7114 147.222 14.3047C146.947 14.8946 146.566 15.352 146.078 15.6768C145.591 15.9983 145.029 16.1591 144.393 16.1591C143.903 16.1591 143.51 16.0779 143.215 15.9155C142.92 15.7498 142.693 15.5625 142.534 15.3537C142.375 15.1416 142.252 14.9659 142.166 14.8267H142.027V16H140.893ZM142.047 12.1818C142.047 12.7585 142.131 13.2673 142.3 13.7081C142.469 14.1456 142.716 14.4886 143.041 14.7372C143.366 14.9825 143.763 15.1051 144.234 15.1051C144.725 15.1051 145.134 14.9759 145.462 14.7173C145.793 14.4555 146.042 14.1042 146.208 13.6634C146.377 13.2192 146.461 12.7254 146.461 12.1818C146.461 11.6449 146.378 11.161 146.213 10.7301C146.05 10.2959 145.803 9.95289 145.472 9.70099C145.144 9.44579 144.731 9.31818 144.234 9.31818C143.757 9.31818 143.356 9.43916 143.031 9.68111C142.706 9.91974 142.461 10.2545 142.295 10.6854C142.129 11.1129 142.047 11.6117 142.047 12.1818ZM149.912 18.8636C149.713 18.8636 149.535 18.8471 149.38 18.8139C149.224 18.7841 149.116 18.7543 149.056 18.7244L149.355 17.6903C149.64 17.7633 149.892 17.7898 150.11 17.7699C150.329 17.75 150.523 17.6522 150.692 17.4766C150.864 17.3042 151.022 17.0241 151.164 16.6364L151.383 16.0398L148.559 8.36364H149.832L151.94 14.4489H152.02L154.127 8.36364H155.4L152.159 17.1136C152.013 17.508 151.832 17.8345 151.617 18.093C151.401 18.3549 151.151 18.5488 150.866 18.6747C150.584 18.8007 150.266 18.8636 149.912 18.8636Z" fill="white"/>
<path d="M30.7272 24V29.1494H15.6291C12.9679 29.1494 11.7894 30.5885 11.7894 32.6408C11.7894 34.4302 12.7071 36.1321 16.1525 36.1321H23.0478C31.0775 36.1321 32.9546 40.5829 32.9546 44.8168C32.9546 49.791 30.2933 53.4576 23.5732 53.4576H7.16554V48.3081H23.7484C26.5412 48.3081 27.8073 46.7814 27.8073 44.6416C27.8073 42.7206 26.804 40.9771 23.1814 40.9771H16.3297C8.47517 40.9771 6.64209 36.5701 6.64209 32.4677C6.64209 27.579 9.25973 24.002 15.8063 24.002L30.7272 24Z" fill="white"/>
<path d="M63.5923 30.4154C71.4032 30.4154 75.2429 34.1236 75.2429 40.4953V53.4555H70.5731V40.4953C70.5731 36.8725 68.4768 34.8661 63.6342 34.8661H58.2238V53.4555H53.5543V34.8661H41.8601C41.8226 34.8661 41.7872 34.8681 41.7537 34.8721C41.6996 34.8785 41.6507 34.89 41.6067 34.9068C41.5448 34.9304 41.4926 34.9641 41.4495 35.008C41.4189 35.0392 41.3928 35.0756 41.3712 35.1171C41.3183 35.2202 41.2926 35.3548 41.2926 35.521V53.4555H36.6667V33.9944C36.6667 31.2892 37.5825 30.4154 39.8954 30.4154H63.5923Z" fill="white"/>
<path d="M121.511 34.8661V30.4154H112.042C107.504 30.4154 105.802 32.5094 105.802 37.1353V53.4555H110.428V37.834C110.428 35.8255 111.343 34.8661 113.395 34.8661H121.511Z" fill="white"/>
<path d="M127.292 30.4154V24.9615H131.962V30.4154H138.334V34.8662H131.962V45.7761C131.962 48.3498 132.879 49.2237 135.059 49.2237H138.244V53.4555H134.097C129.34 53.4555 127.29 51.5346 127.29 45.5133V34.8662H124.149V30.4154H127.292Z" fill="white"/>
<path d="M86.76 43.4631H94.9543L94.9608 39.7987H86.6744C81.0037 39.7987 78.9075 42.243 78.9075 46.431C78.9075 50.7963 81.1768 53.4575 86.6304 53.4575H97.4094C101.293 53.4575 102.166 52.1478 102.166 48.8315V38.0092C102.166 33.6439 99.8975 30.4154 94.1367 30.4154H80.3006V34.8661H94.0911C96.6228 34.8661 97.6261 36.2614 97.6261 38.0509V47.7825C97.6261 48.6126 97.2778 48.9609 96.36 48.9609H86.6724C84.3595 48.9609 83.4437 47.8701 83.4437 46.1682C83.4437 44.4663 84.3155 43.4631 86.76 43.4631Z" fill="white"/>
<path d="M116.943 58.5445V63.6939H105.554C99.8806 63.6939 97.3946 66.5304 97.3946 73.2941C97.3946 80.0141 99.8389 82.8505 105.554 82.8505H116.943V88H105.554C96.9566 88 92.2451 83.155 92.2451 73.2941C92.2451 63.3894 97.0025 58.5445 105.554 58.5445H116.943Z" fill="white"/>
<path d="M126.685 58.5361V59.3829C126.685 60.945 125.419 62.211 123.857 62.211C122.295 62.211 121.029 60.945 121.029 59.3829V58.5361C121.029 56.974 122.295 55.708 123.857 55.708C125.419 55.708 126.685 56.974 126.685 58.5361Z" fill="white"/>
<path d="M126.149 64.96H121.523V88H126.149V64.96Z" fill="white"/>
<path d="M132.3 64.96V59.506H136.97V64.96H143.341V69.4107H136.97V80.3207C136.97 82.8944 137.887 83.7683 140.067 83.7683H143.252V88H139.105C134.348 88 132.298 86.0792 132.298 80.0579V69.4107H129.157V64.96H132.3Z" fill="white"/>
<path d="M151.152 64.96H146.526V88H151.152V64.96Z" fill="white"/>
<path d="M172.269 64.9599C176.284 64.9599 178.205 67.0539 178.205 70.2408C178.205 73.0772 176.678 74.9105 174.278 75.7823L161.057 80.5813C160.27 80.8858 159.835 81.4114 159.835 82.1518C159.835 83.0257 160.402 83.5492 161.58 83.5492H177.727V88H161.319C157.348 88 155.384 85.906 155.384 82.7191C155.384 80.1454 156.65 78.0932 159.311 77.1338L172.578 72.3765C173.537 72.0282 173.8 71.3733 173.8 70.7622C173.8 69.8883 173.233 69.4086 172.01 69.4086H156.214V64.9578H172.269V64.9599Z" fill="white"/>
<path d="M221.751 64.96C229.562 64.96 233.357 68.6682 233.357 75.0399V88H228.688V75.0399C228.688 71.4171 226.594 69.4107 221.749 69.4107H214.199C213.807 69.4107 213.631 69.6297 213.631 70.0656V88H209.005V68.5389C209.005 65.8338 209.921 64.96 212.234 64.96H221.751Z" fill="white"/>
<path d="M185.732 80.3186C185.732 82.1519 186.735 83.5034 189.267 83.5034H203.362V87.9979H189.267C183.506 87.9979 181.237 84.7694 181.237 80.4041V72.5496C181.237 68.1865 183.506 64.9558 189.267 64.9558H196.729C202.183 64.9558 204.496 67.5754 204.496 72.0261C204.496 76.2579 202.358 78.6584 196.685 78.6584H188.347L188.353 75.0357H196.554C199.042 75.0357 199.958 73.9887 199.958 72.2868C199.958 70.5411 198.955 69.4066 196.685 69.4066H189.267C186.737 69.4066 185.732 70.8039 185.732 72.5913V80.3186Z" fill="white"/>
<path d="M178.558 48.6819C178.555 48.6735 178.553 48.6652 178.551 48.6569C178.551 48.6172 178.549 48.5839 178.541 48.5567C177.823 45.9205 176.756 43.4052 175.35 41.0401C173.335 37.653 170.716 34.7227 167.564 32.3305C164.411 29.9382 160.882 28.2051 157.08 27.1769C153.14 26.1132 149.073 25.8567 145 26.4156C144.849 26.4365 144.685 26.4594 144.528 26.4844C144.484 26.4886 144.443 26.4928 144.399 26.499C143.087 26.6784 142.169 27.8881 142.349 29.1999C142.528 30.5118 143.738 31.4295 145.05 31.2501C145.152 31.2355 145.25 31.2167 145.346 31.1896C145.446 31.175 145.546 31.1604 145.646 31.1458C158.629 29.3647 170.713 37.3172 173.961 49.8144C173.978 49.8665 173.992 49.9208 174.003 49.975C174.011 50.0042 174.017 50.0334 174.025 50.0647C174.03 50.0813 174.028 50.1043 174.019 50.1314C174.042 50.7091 173.625 51.2201 173.041 51.2994C172.43 51.3828 171.867 50.9636 171.769 50.3587C171.746 50.2774 171.725 50.194 171.702 50.1126C171.156 48.1626 170.369 46.4044 169.31 44.6274C167.76 42.0204 165.745 39.7658 163.318 37.9242C160.892 36.0825 158.177 34.7498 155.248 33.9573C153.432 33.4671 151.743 33.1793 150.007 33.1209C149.882 33.1105 149.734 33.1063 149.563 33.1105C149.521 33.1105 149.478 33.1105 149.436 33.1084C149.421 33.1084 149.402 33.1105 149.382 33.1168C146.14 33.2815 143.631 36.0283 143.767 39.2757C143.903 42.5334 146.643 45.0904 149.897 44.9715C154.116 45.2385 157.872 47.7871 159.678 51.6101C159.678 51.6122 159.68 51.6143 159.68 51.6164C159.737 51.7269 159.776 51.8479 159.795 51.9772C159.881 52.5925 159.449 53.1618 158.834 53.2453C158.3 53.3183 157.801 53.0033 157.624 52.5153C157.609 52.484 157.593 52.4527 157.578 52.4214L157.499 52.1941C156.469 49.4598 153.862 47.395 150.539 47.395C146.873 47.395 143.767 49.975 143.029 53.4246L142.985 53.6582C142.728 54.9159 142.795 55.9983 143.21 57.2997C143.298 57.5709 143.465 58.0547 143.636 58.3613C145.016 60.8412 147.492 62.2552 150.255 62.1968L150.291 62.1947C150.31 62.1947 150.331 62.1947 150.349 62.1947C151.676 62.1655 152.733 61.0643 152.704 59.7378C152.675 58.4114 151.574 57.354 150.247 57.3811C150.216 57.3811 150.185 57.3832 150.155 57.3853H150.153C149.484 57.3999 148.856 57.2038 148.37 56.6824C147.926 56.2048 147.68 55.5395 147.659 54.9597C147.607 53.3996 148.906 52.094 150.525 52.1712C151.494 52.217 152.249 52.7155 152.71 53.4935C153.069 54.0983 153.334 54.7365 153.905 55.4706C153.905 55.4706 155.816 58.1549 159.393 57.7899C162.642 57.4583 164.89 54.3632 164.446 51.1283C164.329 50.2774 164.037 49.4953 163.612 48.8112C163.503 48.611 163.391 48.4107 163.274 48.2147C162.189 46.3877 160.778 44.8088 159.076 43.5178C157.376 42.2289 155.474 41.2946 153.424 40.7398C152.16 40.3977 150.869 40.21 149.567 40.1787C149.494 40.185 149.421 40.1829 149.35 40.1746C149.334 40.1746 149.317 40.1746 149.3 40.1746C149.3 40.1746 149.3 40.1725 149.3 40.1683C148.823 40.0911 148.433 39.7136 148.364 39.2089C148.278 38.5937 148.71 38.0243 149.325 37.9408C149.379 37.9325 149.434 37.9304 149.488 37.9304H149.49C157.591 38.0785 164.69 43.522 167.02 51.1888C167.024 51.2034 167.03 51.2201 167.037 51.2368C167.039 51.2451 167.041 51.2535 167.043 51.2618C167.756 54.4424 170.912 56.4425 174.092 55.7293C177.271 55.0181 179.271 51.8625 178.558 48.6819Z" fill="#F58863"/>
</svg>
