<svg width="241" height="88" viewBox="0 0 241 88" fill="none" xmlns="http://www.w3.org/2000/svg">
<path d="M85.6989 18.8636V8.36364H86.8324V9.5767H86.9716C87.0578 9.44413 87.1771 9.27509 87.3295 9.0696C87.4853 8.8608 87.7074 8.67519 87.9957 8.51278C88.2874 8.34706 88.6818 8.2642 89.179 8.2642C89.822 8.2642 90.3887 8.42495 90.8793 8.74645C91.3698 9.06794 91.7526 9.52367 92.0277 10.1136C92.3028 10.7036 92.4403 11.3996 92.4403 12.2017C92.4403 13.0104 92.3028 13.7114 92.0277 14.3047C91.7526 14.8946 91.3714 15.352 90.8842 15.6768C90.397 15.9983 89.8352 16.1591 89.1989 16.1591C88.7083 16.1591 88.3156 16.0779 88.0206 15.9155C87.7256 15.7498 87.4986 15.5625 87.3395 15.3537C87.1804 15.1416 87.0578 14.9659 86.9716 14.8267H86.8722V18.8636H85.6989ZM86.8523 12.1818C86.8523 12.7585 86.9368 13.2673 87.1058 13.7081C87.2749 14.1456 87.5218 14.4886 87.8466 14.7372C88.1714 14.9825 88.5691 15.1051 89.0398 15.1051C89.5303 15.1051 89.9396 14.9759 90.2678 14.7173C90.5992 14.4555 90.8478 14.1042 91.0135 13.6634C91.1825 13.2192 91.267 12.7254 91.267 12.1818C91.267 11.6449 91.1842 11.161 91.0185 10.7301C90.8561 10.2959 90.6091 9.95289 90.2777 9.70099C89.9496 9.44579 89.5369 9.31818 89.0398 9.31818C88.5625 9.31818 88.1615 9.43916 87.8366 9.68111C87.5118 9.91974 87.2666 10.2545 87.1009 10.6854C86.9351 11.1129 86.8523 11.6117 86.8523 12.1818ZM94.2301 16V8.36364H95.3636V9.51705H95.4432C95.5824 9.1392 95.8343 8.83262 96.1989 8.5973C96.5634 8.36198 96.9744 8.24432 97.4318 8.24432C97.518 8.24432 97.6257 8.24597 97.755 8.24929C97.8842 8.2526 97.982 8.25758 98.0483 8.2642V9.45739C98.0085 9.44744 97.9174 9.43253 97.7749 9.41264C97.6357 9.38944 97.4882 9.37784 97.3324 9.37784C96.9612 9.37784 96.6297 9.45573 96.3381 9.61151C96.0497 9.76397 95.821 9.97609 95.652 10.2479C95.4863 10.5163 95.4034 10.8229 95.4034 11.1676V16H94.2301ZM102.309 16.1591C101.62 16.1591 101.015 15.995 100.494 15.6669C99.9773 15.3388 99.5729 14.8797 99.2812 14.2898C98.9929 13.6998 98.8487 13.0104 98.8487 12.2216C98.8487 11.4261 98.9929 10.7318 99.2812 10.1385C99.5729 9.54522 99.9773 9.08452 100.494 8.75639C101.015 8.42827 101.62 8.2642 102.309 8.2642C102.998 8.2642 103.602 8.42827 104.119 8.75639C104.639 9.08452 105.043 9.54522 105.332 10.1385C105.623 10.7318 105.769 11.4261 105.769 12.2216C105.769 13.0104 105.623 13.6998 105.332 14.2898C105.043 14.8797 104.639 15.3388 104.119 15.6669C103.602 15.995 102.998 16.1591 102.309 16.1591ZM102.309 15.1051C102.833 15.1051 103.263 14.9709 103.602 14.7024C103.94 14.4339 104.19 14.081 104.352 13.6435C104.515 13.206 104.596 12.732 104.596 12.2216C104.596 11.7112 104.515 11.2356 104.352 10.7947C104.19 10.3539 103.94 9.99763 103.602 9.72585C103.263 9.45407 102.833 9.31818 102.309 9.31818C101.785 9.31818 101.354 9.45407 101.016 9.72585C100.678 9.99763 100.428 10.3539 100.266 10.7947C100.103 11.2356 100.022 11.7112 100.022 12.2216C100.022 12.732 100.103 13.206 100.266 13.6435C100.428 14.081 100.678 14.4339 101.016 14.7024C101.354 14.9709 101.785 15.1051 102.309 15.1051ZM110.444 16.1591C109.807 16.1591 109.246 15.9983 108.758 15.6768C108.271 15.352 107.89 14.8946 107.615 14.3047C107.34 13.7114 107.202 13.0104 107.202 12.2017C107.202 11.3996 107.34 10.7036 107.615 10.1136C107.89 9.52367 108.273 9.06794 108.763 8.74645C109.254 8.42495 109.821 8.2642 110.464 8.2642C110.961 8.2642 111.354 8.34706 111.642 8.51278C111.934 8.67519 112.156 8.8608 112.308 9.0696C112.464 9.27509 112.585 9.44413 112.671 9.5767H112.77V5.81818H113.944V16H112.81V14.8267H112.671C112.585 14.9659 112.462 15.1416 112.303 15.3537C112.144 15.5625 111.917 15.7498 111.622 15.9155C111.327 16.0779 110.934 16.1591 110.444 16.1591ZM110.603 15.1051C111.073 15.1051 111.471 14.9825 111.796 14.7372C112.121 14.4886 112.368 14.1456 112.537 13.7081C112.706 13.2673 112.79 12.7585 112.79 12.1818C112.79 11.6117 112.707 11.1129 112.542 10.6854C112.376 10.2545 112.131 9.91974 111.806 9.68111C111.481 9.43916 111.08 9.31818 110.603 9.31818C110.106 9.31818 109.691 9.44579 109.36 9.70099C109.032 9.95289 108.785 10.2959 108.619 10.7301C108.457 11.161 108.376 11.6449 108.376 12.1818C108.376 12.7254 108.458 13.2192 108.624 13.6634C108.793 14.1042 109.042 14.4555 109.37 14.7173C109.701 14.9759 110.112 15.1051 110.603 15.1051ZM121.068 12.8778V8.36364H122.241V16H121.068V14.7074H120.988C120.809 15.0952 120.531 15.425 120.153 15.6967C119.775 15.9652 119.298 16.0994 118.721 16.0994C118.244 16.0994 117.82 15.995 117.449 15.7862C117.077 15.5741 116.786 15.2559 116.574 14.8317C116.362 14.4041 116.256 13.8655 116.256 13.2159V8.36364H117.429V13.1364C117.429 13.6932 117.585 14.1373 117.896 14.4688C118.211 14.8002 118.612 14.9659 119.099 14.9659C119.391 14.9659 119.688 14.8913 119.989 14.7422C120.294 14.593 120.549 14.3643 120.755 14.0561C120.964 13.7479 121.068 13.3551 121.068 12.8778ZM127.493 16.1591C126.777 16.1591 126.16 15.9901 125.643 15.652C125.126 15.3139 124.728 14.8482 124.45 14.255C124.172 13.6617 124.032 12.9839 124.032 12.2216C124.032 11.446 124.175 10.7616 124.46 10.1683C124.748 9.57173 125.149 9.10606 125.663 8.77131C126.18 8.43324 126.783 8.2642 127.473 8.2642C128.01 8.2642 128.493 8.36364 128.924 8.5625C129.355 8.76136 129.708 9.03977 129.983 9.39773C130.258 9.75568 130.429 10.1733 130.495 10.6506H129.322C129.233 10.3026 129.034 9.99432 128.725 9.72585C128.421 9.45407 128.01 9.31818 127.493 9.31818C127.035 9.31818 126.634 9.4375 126.289 9.67614C125.948 9.91146 125.681 10.2446 125.489 10.6754C125.3 11.103 125.206 11.6051 125.206 12.1818C125.206 12.7718 125.298 13.2855 125.484 13.723C125.673 14.1605 125.938 14.5002 126.279 14.7422C126.624 14.9841 127.029 15.1051 127.493 15.1051C127.797 15.1051 128.074 15.0521 128.323 14.946C128.571 14.84 128.782 14.6875 128.954 14.4886C129.127 14.2898 129.249 14.0511 129.322 13.7727H130.495C130.429 14.2235 130.265 14.6295 130.003 14.9908C129.745 15.3487 129.402 15.6338 128.974 15.8459C128.55 16.0547 128.056 16.1591 127.493 16.1591ZM135.532 8.36364V9.35795H131.574V8.36364H135.532ZM132.728 6.53409H133.901V13.8125C133.901 14.1439 133.949 14.3925 134.045 14.5582C134.145 14.7206 134.27 14.83 134.423 14.8864C134.579 14.9394 134.743 14.9659 134.915 14.9659C135.044 14.9659 135.15 14.9593 135.233 14.946C135.316 14.9295 135.382 14.9162 135.432 14.9062L135.671 15.9602C135.591 15.9901 135.48 16.0199 135.338 16.0497C135.195 16.0829 135.015 16.0994 134.796 16.0994C134.464 16.0994 134.14 16.0282 133.821 15.8857C133.507 15.7431 133.245 15.526 133.036 15.2344C132.83 14.9427 132.728 14.5748 132.728 14.1307V6.53409ZM141.393 16V5.81818H142.566V9.5767H142.666C142.752 9.44413 142.871 9.27509 143.024 9.0696C143.18 8.8608 143.402 8.67519 143.69 8.51278C143.982 8.34706 144.376 8.2642 144.873 8.2642C145.516 8.2642 146.083 8.42495 146.574 8.74645C147.064 9.06794 147.447 9.52367 147.722 10.1136C147.997 10.7036 148.135 11.3996 148.135 12.2017C148.135 13.0104 147.997 13.7114 147.722 14.3047C147.447 14.8946 147.066 15.352 146.578 15.6768C146.091 15.9983 145.529 16.1591 144.893 16.1591C144.403 16.1591 144.01 16.0779 143.715 15.9155C143.42 15.7498 143.193 15.5625 143.034 15.3537C142.875 15.1416 142.752 14.9659 142.666 14.8267H142.527V16H141.393ZM142.547 12.1818C142.547 12.7585 142.631 13.2673 142.8 13.7081C142.969 14.1456 143.216 14.4886 143.541 14.7372C143.866 14.9825 144.263 15.1051 144.734 15.1051C145.225 15.1051 145.634 14.9759 145.962 14.7173C146.293 14.4555 146.542 14.1042 146.708 13.6634C146.877 13.2192 146.961 12.7254 146.961 12.1818C146.961 11.6449 146.878 11.161 146.713 10.7301C146.55 10.2959 146.303 9.95289 145.972 9.70099C145.644 9.44579 145.231 9.31818 144.734 9.31818C144.257 9.31818 143.856 9.43916 143.531 9.68111C143.206 9.91974 142.961 10.2545 142.795 10.6854C142.629 11.1129 142.547 11.6117 142.547 12.1818ZM150.412 18.8636C150.213 18.8636 150.035 18.8471 149.88 18.8139C149.724 18.7841 149.616 18.7543 149.556 18.7244L149.855 17.6903C150.14 17.7633 150.392 17.7898 150.61 17.7699C150.829 17.75 151.023 17.6522 151.192 17.4766C151.364 17.3042 151.522 17.0241 151.664 16.6364L151.883 16.0398L149.059 8.36364H150.332L152.44 14.4489H152.52L154.627 8.36364H155.9L152.659 17.1136C152.513 17.508 152.332 17.8345 152.117 18.093C151.901 18.3549 151.651 18.5488 151.366 18.6747C151.084 18.8007 150.766 18.8636 150.412 18.8636Z" fill="#B0B4BD"/>
<path d="M31.2272 24V29.1494H16.1291C13.4679 29.1494 12.2894 30.5885 12.2894 32.6408C12.2894 34.4302 13.2071 36.1321 16.6525 36.1321H23.5478C31.5775 36.1321 33.4546 40.5829 33.4546 44.8168C33.4546 49.791 30.7933 53.4576 24.0732 53.4576H7.66554V48.3081H24.2484C27.0412 48.3081 28.3073 46.7814 28.3073 44.6416C28.3073 42.7206 27.304 40.9771 23.6814 40.9771H16.8297C8.97517 40.9771 7.14209 36.5701 7.14209 32.4677C7.14209 27.579 9.75973 24.002 16.3063 24.002L31.2272 24Z" fill="#5B8899"/>
<path d="M64.0923 30.4154C71.9032 30.4154 75.7429 34.1236 75.7429 40.4953V53.4555H71.0731V40.4953C71.0731 36.8725 68.9768 34.8661 64.1342 34.8661H58.7238V53.4555H54.0543V34.8661H42.3601C42.3226 34.8661 42.2872 34.8681 42.2537 34.8721C42.1996 34.8785 42.1507 34.89 42.1067 34.9068C42.0448 34.9304 41.9926 34.9641 41.9495 35.008C41.9189 35.0392 41.8928 35.0756 41.8712 35.1171C41.8183 35.2202 41.7926 35.3548 41.7926 35.521V53.4555H37.1667V33.9944C37.1667 31.2892 38.0825 30.4154 40.3954 30.4154H64.0923Z" fill="#5B8899"/>
<path d="M122.011 34.8661V30.4154H112.542C108.004 30.4154 106.302 32.5094 106.302 37.1353V53.4555H110.928V37.834C110.928 35.8255 111.843 34.8661 113.895 34.8661H122.011Z" fill="#5B8899"/>
<path d="M127.792 30.4154V24.9615H132.462V30.4154H138.834V34.8662H132.462V45.7761C132.462 48.3498 133.379 49.2237 135.559 49.2237H138.744V53.4555H134.597C129.84 53.4555 127.79 51.5346 127.79 45.5133V34.8662H124.649V30.4154H127.792Z" fill="#5B8899"/>
<path d="M87.26 43.4631H95.4543L95.4608 39.7987H87.1744C81.5037 39.7987 79.4075 42.243 79.4075 46.431C79.4075 50.7963 81.6768 53.4575 87.1304 53.4575H97.9094C101.793 53.4575 102.666 52.1478 102.666 48.8315V38.0092C102.666 33.6439 100.397 30.4154 94.6367 30.4154H80.8006V34.8661H94.5911C97.1228 34.8661 98.1261 36.2614 98.1261 38.0509V47.7825C98.1261 48.6126 97.7778 48.9609 96.86 48.9609H87.1724C84.8595 48.9609 83.9437 47.8701 83.9437 46.1682C83.9437 44.4663 84.8155 43.4631 87.26 43.4631Z" fill="#5B8899"/>
<path d="M117.443 58.5445V63.6939H106.054C100.381 63.6939 97.8946 66.5304 97.8946 73.2941C97.8946 80.0141 100.339 82.8505 106.054 82.8505H117.443V88H106.054C97.4566 88 92.7451 83.155 92.7451 73.2941C92.7451 63.3894 97.5025 58.5445 106.054 58.5445H117.443Z" fill="#5B8899"/>
<path d="M127.185 58.5361V59.3829C127.185 60.945 125.919 62.211 124.357 62.211C122.795 62.211 121.529 60.945 121.529 59.3829V58.5361C121.529 56.974 122.795 55.708 124.357 55.708C125.919 55.708 127.185 56.974 127.185 58.5361Z" fill="#5B8899"/>
<path d="M126.649 64.96H122.023V88H126.649V64.96Z" fill="#5B8899"/>
<path d="M132.8 64.96V59.506H137.47V64.96H143.841V69.4107H137.47V80.3207C137.47 82.8944 138.387 83.7683 140.567 83.7683H143.752V88H139.605C134.848 88 132.798 86.0792 132.798 80.0579V69.4107H129.657V64.96H132.8Z" fill="#5B8899"/>
<path d="M151.652 64.96H147.026V88H151.652V64.96Z" fill="#5B8899"/>
<path d="M172.769 64.9599C176.784 64.9599 178.705 67.0539 178.705 70.2408C178.705 73.0772 177.178 74.9105 174.778 75.7823L161.557 80.5813C160.77 80.8858 160.335 81.4114 160.335 82.1518C160.335 83.0257 160.902 83.5492 162.08 83.5492H178.227V88H161.819C157.848 88 155.884 85.906 155.884 82.7191C155.884 80.1454 157.15 78.0932 159.811 77.1338L173.078 72.3765C174.037 72.0282 174.3 71.3733 174.3 70.7622C174.3 69.8883 173.733 69.4086 172.51 69.4086H156.714V64.9578H172.769V64.9599Z" fill="#5B8899"/>
<path d="M222.251 64.96C230.062 64.96 233.857 68.6682 233.857 75.0399V88H229.188V75.0399C229.188 71.4171 227.094 69.4107 222.249 69.4107H214.699C214.307 69.4107 214.131 69.6297 214.131 70.0656V88H209.505V68.5389C209.505 65.8338 210.421 64.96 212.734 64.96H222.251Z" fill="#5B8899"/>
<path d="M186.232 80.3186C186.232 82.1519 187.235 83.5034 189.767 83.5034H203.862V87.9979H189.767C184.006 87.9979 181.737 84.7694 181.737 80.4041V72.5496C181.737 68.1865 184.006 64.9558 189.767 64.9558H197.229C202.683 64.9558 204.996 67.5754 204.996 72.0261C204.996 76.2579 202.858 78.6584 197.185 78.6584H188.847L188.853 75.0357H197.054C199.542 75.0357 200.458 73.9887 200.458 72.2868C200.458 70.5411 199.455 69.4066 197.185 69.4066H189.767C187.237 69.4066 186.232 70.8039 186.232 72.5913V80.3186Z" fill="#5B8899"/>
<path d="M179.057 48.6819C179.055 48.6735 179.053 48.6652 179.051 48.6569C179.051 48.6172 179.049 48.5839 179.041 48.5567C178.323 45.9205 177.255 43.4052 175.85 41.0401C173.835 37.653 171.215 34.7227 168.064 32.3305C164.91 29.9382 161.382 28.2051 157.579 27.1769C153.64 26.1132 149.573 25.8567 145.499 26.4156C145.349 26.4365 145.184 26.4594 145.028 26.4844C144.984 26.4886 144.943 26.4928 144.899 26.499C143.587 26.6784 142.669 27.8881 142.849 29.1999C143.028 30.5118 144.238 31.4295 145.549 31.2501C145.652 31.2355 145.75 31.2167 145.846 31.1896C145.946 31.175 146.046 31.1604 146.146 31.1458C159.129 29.3647 171.213 37.3172 174.461 49.8144C174.477 49.8665 174.492 49.9208 174.502 49.975C174.511 50.0042 174.517 50.0334 174.525 50.0647C174.529 50.0813 174.527 50.1043 174.519 50.1314C174.542 50.7091 174.125 51.2201 173.541 51.2994C172.93 51.3828 172.367 50.9636 172.269 50.3587C172.246 50.2774 172.225 50.194 172.202 50.1126C171.655 48.1626 170.869 46.4044 169.81 44.6274C168.26 42.0204 166.245 39.7658 163.818 37.9242C161.392 36.0825 158.676 34.7498 155.748 33.9573C153.932 33.4671 152.242 33.1793 150.507 33.1209C150.382 33.1105 150.234 33.1063 150.063 33.1105C150.021 33.1105 149.977 33.1105 149.936 33.1084C149.921 33.1084 149.902 33.1105 149.881 33.1168C146.64 33.2815 144.131 36.0283 144.267 39.2757C144.402 42.5334 147.143 45.0904 150.396 44.9715C154.616 45.2385 158.372 47.7871 160.178 51.6101C160.178 51.6122 160.18 51.6143 160.18 51.6164C160.237 51.7269 160.276 51.8479 160.295 51.9772C160.38 52.5925 159.949 53.1618 159.333 53.2453C158.8 53.3183 158.301 53.0033 158.124 52.5153C158.109 52.484 158.093 52.4527 158.078 52.4214L157.999 52.1941C156.968 49.4598 154.361 47.395 151.039 47.395C147.372 47.395 144.267 49.975 143.528 53.4246L143.485 53.6582C143.228 54.9159 143.295 55.9983 143.71 57.2997C143.798 57.5709 143.964 58.0547 144.135 58.3613C145.516 60.8412 147.992 62.2552 150.755 62.1968L150.791 62.1947C150.809 62.1947 150.83 62.1947 150.849 62.1947C152.176 62.1655 153.233 61.0643 153.204 59.7378C153.175 58.4114 152.073 57.354 150.747 57.3811C150.716 57.3811 150.684 57.3832 150.655 57.3853H150.653C149.984 57.3999 149.356 57.2038 148.87 56.6824C148.426 56.2048 148.179 55.5395 148.159 54.9597C148.106 53.3996 149.406 52.094 151.024 52.1712C151.994 52.217 152.749 52.7155 153.21 53.4935C153.569 54.0983 153.834 54.7365 154.405 55.4706C154.405 55.4706 156.316 58.1549 159.892 57.7899C163.142 57.4583 165.39 54.3632 164.946 51.1283C164.829 50.2774 164.537 49.4953 164.112 48.8112C164.003 48.611 163.891 48.4107 163.774 48.2147C162.689 46.3877 161.277 44.8088 159.575 43.5178C157.876 42.2289 155.973 41.2946 153.923 40.7398C152.659 40.3977 151.368 40.21 150.067 40.1787C149.994 40.185 149.921 40.1829 149.85 40.1746C149.833 40.1746 149.817 40.1746 149.8 40.1746C149.8 40.1746 149.8 40.1725 149.8 40.1683C149.322 40.0911 148.932 39.7136 148.864 39.2089C148.778 38.5937 149.21 38.0243 149.825 37.9408C149.879 37.9325 149.933 37.9304 149.988 37.9304H149.99C158.09 38.0785 165.19 43.522 167.52 51.1888C167.524 51.2034 167.53 51.2201 167.536 51.2368C167.538 51.2451 167.54 51.2535 167.543 51.2618C168.256 54.4424 171.411 56.4425 174.592 55.7293C177.77 55.0181 179.771 51.8625 179.057 48.6819Z" fill="#F58863"/>
</svg>
