<svg width="22" height="26" viewBox="0 0 22 26" fill="none" xmlns="http://www.w3.org/2000/svg">
<path d="M9.11393 10.8204V9.82568C8.77315 9.78015 8.42668 9.7517 8.06885 9.7517C3.80335 9.7461 0.333008 13.2193 0.333008 17.4941C0.333008 20.1147 1.63936 22.434 3.63864 23.8381C2.34933 22.4568 1.55984 20.5978 1.55984 18.5628C1.55984 14.3505 4.93362 10.9171 9.11393 10.8204Z" fill="#8ACC0D"/>
<path d="M9.3014 22.0986C11.2041 22.0986 12.7604 20.5809 12.8286 18.6936L12.8343 1.82749H15.9127C15.8502 1.48073 15.8161 1.1226 15.8161 0.758789H11.6131L11.6074 17.6249C11.5393 19.5122 9.98295 21.0299 8.08026 21.0299C7.48956 21.0299 6.93295 20.8821 6.43881 20.6206C7.07494 21.5131 8.12002 22.0986 9.3014 22.0986Z" fill="#8ACC0D"/>
<path d="M21.6663 7.5518V6.61389C20.4907 6.61389 19.4001 6.26712 18.48 5.66452C19.2978 6.60251 20.4054 7.28469 21.6663 7.5518Z" fill="#8ACC0D"/>
<path d="M15.8159 17.4941V8.93882C17.4631 10.1212 19.4851 10.8204 21.6662 10.8204L21.6663 7.5518C20.4054 7.28469 19.2978 6.60251 18.48 5.66452C17.1622 4.8062 16.2137 3.43054 15.9127 1.82749H12.8343L12.8286 18.6936C12.7604 20.5809 11.2041 22.0986 9.3014 22.0986C8.11997 22.0986 7.08048 21.5131 6.43299 20.6263C5.30839 20.0294 4.53595 18.8528 4.53595 17.4941C4.53595 15.5443 6.1206 13.9583 8.06876 13.9583C8.43226 13.9583 8.78441 14.0208 9.11384 14.1231V10.8261C4.93353 10.9171 1.55984 14.3505 1.55984 18.5628C1.55984 20.5978 2.34933 22.4511 3.63864 23.8381C4.89387 24.7192 6.42731 25.2422 8.07444 25.2422C12.34 25.2422 15.8159 21.7632 15.8159 17.4941Z" fill="#8ACC0D"/>
</svg>
