<svg width="28" height="23" viewBox="0 0 28 23" fill="none" xmlns="http://www.w3.org/2000/svg">
<path d="M19.3999 3.39983C18.3865 3.39966 17.4135 3.79732 16.6904 4.50725C15.9673 5.21718 15.5517 6.18262 15.5332 7.19583L15.4959 9.29583C15.4937 9.40858 15.4677 9.5196 15.4196 9.62159C15.3715 9.72359 15.3023 9.81426 15.2167 9.88767C15.1311 9.96107 15.0309 10.0155 14.9228 10.0475C14.8146 10.0795 14.701 10.0882 14.5892 10.0732L12.5079 9.79049C9.7692 9.41716 7.1452 8.15583 4.62786 6.05849C3.83053 10.4718 5.38786 13.5292 9.13853 15.8878L11.4679 17.3518C11.5785 17.4214 11.6705 17.517 11.7357 17.6303C11.8008 17.7436 11.8373 17.8712 11.8417 18.0018C11.8462 18.1324 11.8186 18.2622 11.7613 18.3797C11.704 18.4972 11.6189 18.5989 11.5132 18.6758L9.39053 20.2265C10.6532 20.3052 11.8519 20.2492 12.8465 20.0518C19.1372 18.7958 23.3199 14.0625 23.3199 6.25449C23.3199 5.61716 21.9705 3.39983 19.3999 3.39983ZM12.8665 7.14649C12.8898 5.86123 13.2917 4.61139 14.0219 3.55346C14.7522 2.49553 15.7783 1.67652 16.9718 1.19898C18.1652 0.721446 19.4731 0.6066 20.7315 0.868823C21.99 1.13105 23.1431 1.75869 24.0465 2.67316C24.9945 2.66649 25.8012 2.90649 27.6052 1.81316C27.1585 3.99983 26.9385 4.94916 25.9865 6.25449C25.9865 16.4438 19.7239 21.3985 13.3692 22.6665C9.01186 23.5358 2.67586 22.1078 0.859863 20.2118C1.7852 20.1398 5.5452 19.7358 7.71853 18.1452C5.87986 16.9332 -1.4388 12.6265 3.37053 1.04783C5.62786 3.68383 7.9172 5.47849 10.2372 6.43049C11.7812 7.06383 12.1599 7.05049 12.8679 7.14783L12.8665 7.14649Z" fill="#B0B4BD"/>
</svg>
