                <svg
                  width="28"
                  height="22"
                  viewBox="0 0 28 22"
                  fill="none"
                  xmlns="http://www.w3.org/2000/svg"
                >
                  <path
                    d="M24.1417 4.32634C24.0403 3.92901 23.7523 3.62901 23.423 3.53701C22.8403 3.37301 20.0003 2.99967 14.0003 2.99967C8.00033 2.99967 5.16299 3.37301 4.57499 3.53701C4.24966 3.62767 3.96166 3.92767 3.85899 4.32634C3.71366 4.89167 3.33366 7.26101 3.33366 10.9997C3.33366 14.7383 3.71366 17.1063 3.85899 17.6743C3.96033 18.0703 4.24833 18.3703 4.57633 18.461C5.16299 18.6263 8.00033 18.9997 14.0003 18.9997C20.0003 18.9997 22.839 18.6263 23.4257 18.4623C23.751 18.3717 24.039 18.0717 24.1417 17.673C24.287 17.1077 24.667 14.733 24.667 10.9997C24.667 7.26634 24.287 4.89301 24.1417 4.32634ZM26.7243 3.66367C27.3337 6.03967 27.3337 10.9997 27.3337 10.9997C27.3337 10.9997 27.3337 15.9597 26.7243 18.3357C26.3857 19.649 25.395 20.6823 24.1403 21.0317C21.8617 21.6663 14.0003 21.6663 14.0003 21.6663C14.0003 21.6663 6.14299 21.6663 3.86033 21.0317C2.60033 20.677 1.61099 19.645 1.27633 18.3357C0.666992 15.9597 0.666992 10.9997 0.666992 10.9997C0.666992 10.9997 0.666992 6.03967 1.27633 3.66367C1.61499 2.35034 2.60566 1.31701 3.86033 0.967674C6.14299 0.333008 14.0003 0.333008 14.0003 0.333008C14.0003 0.333008 21.8617 0.333008 24.1403 0.967674C25.4003 1.32234 26.3897 2.35434 26.7243 3.66367ZM11.3337 15.6663V6.33301L19.3337 10.9997L11.3337 15.6663Z"
                    fill="#8ACC0D"
                  />
                </svg>
